<svg height="512" viewBox="0 0 128 128" width="512" xmlns="http://www.w3.org/2000/svg"><g id="Flat"><g id="Color"><path d="m118.5 12.5a1.5 1.5 0 0 0 -1.5 1.5v35a1.5 1.5 0 0 0 3 0v-35a1.5 1.5 0 0 0 -1.5-1.5z" fill="#212121"/><path d="m9.5 12.5a1.5 1.5 0 0 0 -1.5 1.5v35a1.5 1.5 0 0 0 3 0v-35a1.5 1.5 0 0 0 -1.5-1.5z" fill="#212121"/><circle cx="118.5" cy="9.5" fill="#424242" r="8"/><circle cx="9.5" cy="9.5" fill="#424242" r="8"/><path d="m11.619 64.964a40.557 40.557 0 0 1 5.7-20.625 17.288 17.288 0 0 0 -10.8 4.6c-4.2 4.181-4.38 9.647-4.646 17.565-.274 8.116-.453 13.463 3.406 17.665 3.758 4.312 8.929 4.578 13.867 4.3a40.927 40.927 0 0 1 -7.527-23.505z" fill="#ffa000"/><path d="m126.132 66.5c-.266-7.918-.45-13.384-4.646-17.565a17.288 17.288 0 0 0 -10.8-4.6 40.343 40.343 0 0 1 -1.827 44.125c4.948.281 10.046-.03 13.867-4.3 3.807-4.242 3.68-9.541 3.406-17.66z" fill="#ffa000"/><path d="m116.381 64.964c0-25.129-23.452-45.5-52.381-45.5s-52.381 20.371-52.381 45.5c0 19.912 14.731 36.825 35.238 42.994-1.44 2.9-3.736 5.546-6.782 9.131a5.5 5.5 0 0 0 5.585 8.88 56.894 56.894 0 0 0 27.01-16.137c24.801-3.59 43.711-22.306 43.711-44.868z" fill="#ffc107"/><path d="m64 26.964c-25.872 0-44.282 22.467-41.559 47.955a19 19 0 0 0 18.835 17.045c11.362-.032 11.362-6.341 22.724-6.341s11.362 6.309 22.724 6.341a19 19 0 0 0 18.835-17.045c2.723-25.488-15.687-47.955-41.559-47.955z" fill="#424242"/><circle cx="64" cy="96.964" fill="#424242" r="4.5"/><g fill="#fff"><circle cx="39.714" cy="62.142" r="5"/><circle cx="64" cy="62.142" r="5"/><circle cx="88.286" cy="62.142" r="5"/></g></g></g></svg>