<svg id="Flat" height="512" viewBox="0 0 64 64" width="512" xmlns="http://www.w3.org/2000/svg"><g id="Color"><path d="m50.036 47.966a54.467 54.467 0 0 0 -10.036-4.981c-1.266-.861-2.984-4.627-3-5.285-.01-.425 0-1.7 0-1.7h-10s.01 1.275 0 1.7c-.016.658-1.734 4.424-3 5.285a54.467 54.467 0 0 0 -10.036 4.981 15.63 15.63 0 0 0 -6.964 13.034h50a15.63 15.63 0 0 0 -6.964-13.034z" fill="#f4a490"/><path d="m50.036 47.966a54.251 54.251 0 0 0 -10.036-4.979l-.278-.245-1.722-2.542-6 3.968-6-3.968-1.724 2.538-.276.249a54.251 54.251 0 0 0 -10.036 4.979 15.63 15.63 0 0 0 -6.964 13.034h50a15.63 15.63 0 0 0 -6.964-13.034z" fill="#e6e7e8"/><path d="m21 15v14.5c0 5.049 4.925 9.2 11 9.2s11-4.151 11-9.2v-14.5z" fill="#ffd5c5"/><path d="m43 29a4 4 0 0 0 0-8z" fill="#f4a490"/><path d="m21 29a4 4 0 0 1 0-8z" fill="#f4a490"/><path d="m36 61h-8l2.667-13h2.666z" fill="#111315"/><path d="m35.212 46.788-3.212-2.616-3.212 2.616 3.212 3.212z" fill="#212529"/><path d="m38 40.2-6 3.968 4.26 3.47a1 1 0 0 0 1.552-.385l1.91-4.515z" fill="#d1d3d4"/><path d="m26 40.2 6 3.968-4.26 3.47a1 1 0 0 1 -1.552-.385l-1.91-4.515z" fill="#d1d3d4"/><path d="m32 3c-7.272-.123-15.115 4.771-15 11.04.052 2.74 0 10.96 0 10.96l8.932-5.684a3.987 3.987 0 0 1 4.1-.116c3.553 2 11.075 5.8 16.968 5.8v-10.96c0-6.1-6.72-10.9-15-11.04z" fill="#212529"/><g fill="#f4a490"><path d="m39.655 26.442a1 1 0 0 0 -1.4.148 1.55 1.55 0 0 1 -2.489-.08.99.99 0 0 0 -1.414 0 1 1 0 0 0 0 1.414 3.544 3.544 0 0 0 5.468-.089.994.994 0 0 0 -.165-1.393z"/><path d="m29.568 26.442a1 1 0 0 0 -1.4.148 1.55 1.55 0 0 1 -2.489-.08.99.99 0 0 0 -1.414 0 1 1 0 0 0 0 1.414 3.544 3.544 0 0 0 5.468-.089.994.994 0 0 0 -.165-1.393z"/><path d="m34.7 31.843a.981.981 0 0 0 -1.414.01 1.779 1.779 0 0 1 -2.576 0 .981.981 0 0 0 -1.414-.01 1.009 1.009 0 0 0 -.01 1.414 3.8 3.8 0 0 0 5.424 0 1.009 1.009 0 0 0 -.01-1.414z"/></g><path d="m17 61v-4a1 1 0 0 0 -2 0v4z" fill="#d1d3d4"/><path d="m49 61v-4a1 1 0 0 0 -2 0v4z" fill="#d1d3d4"/></g></svg>